<?xml version="1.0" encoding="UTF-8"?>
<svg xmlns="http://www.w3.org/2000/svg" xmlns:xlink="http://www.w3.org/1999/xlink" viewBox="0 0 48 48" version="1.1" width="416px" height="416px">
<g id="surface1">
<path style=" fill:#795548;" d="M 24 2 C 14.101563 2 6 10.101563 6 20 L 6 46 L 42 46 L 42 20 C 42 10.101563 33.898438 2 24 2 Z "/>
<path style=" fill:#3E2723;" d="M 14 46 L 14 14 C 14 12.898438 14.898438 12 16 12 C 17.101563 12 18 12.898438 18 14 L 18 46 Z "/>
<path style=" fill:#3E2723;" d="M 34 46 L 34 14 C 34 12.898438 33.101563 12 32 12 C 30.898438 12 30 12.898438 30 14 L 30 46 Z "/>
<path style=" fill:#1565C0;" d="M 17 37 L 31 37 L 31 46 L 17 46 Z "/>
<path style=" fill:#4E342E;" d="M 16 11 C 14.898438 11 14 14.101563 14 13 L 14 5 C 14 3.898438 14.898438 3 16 3 C 17.101563 3 18 3.898438 18 5 L 18 13 C 18 14.101563 17.101563 11 16 11 Z M 26 9.398438 L 26 3 C 26 1.898438 25.101563 1 24 1 C 22.898438 1 22 1.898438 22 3 L 22 9.398438 C 22 10.5 22.898438 8 24 8 C 25.101563 8 26 10.5 26 9.398438 Z M 32 11 C 33.101563 11 34 13.101563 34 12 L 34 5 C 34 3.898438 33.101563 3 32 3 C 30.898438 3 30 3.898438 30 5 L 30 12 C 30 13.101563 30.898438 11 32 11 Z "/>
<path style=" fill:#5D4037;" d="M 14 5.101563 L 14 46 L 10 46 L 10 8.699219 C 11.101563 7.300781 12.5 6.101563 14 5.101563 Z M 34 5.101563 L 34 46 L 38 46 L 38 8.699219 C 36.898438 7.300781 35.5 6.101563 34 5.101563 Z "/>
<path style=" fill:#1565C0;" d="M 36.398438 25.101563 C 36.398438 25.101563 33.199219 27.699219 34 20 C 34.800781 12.300781 41.699219 12 41.699219 12 Z M 11.601563 25.101563 C 11.601563 25.101563 14.800781 27.699219 14 20 C 13.199219 12.300781 6.300781 12 6.300781 12 Z "/>
<path style=" fill:#1E88E5;" d="M 11 22.898438 C 11 30.5 16.800781 43 24 43 C 31.199219 43 37 30.5 37 22.898438 C 37 15.300781 35.800781 9 24 9 C 12.199219 9 11 15.199219 11 22.898438 Z "/>
<path style=" fill:#42A5F5;" d="M 24 7 C 12.199219 7 11 13.199219 11 20.898438 C 12.699219 18.601563 20.300781 17.699219 21 24 L 21 30 C 21 30 21 31 24 31 C 27 31 27 30 27 30 L 27 24 C 27.699219 17.699219 35.300781 18.601563 37 20.898438 C 37 13.199219 35.800781 7 24 7 Z "/>
<path style=" fill:#0D47A1;" d="M 37 20.898438 C 37 20.898438 36 25 31.300781 25.898438 C 29.699219 26.199219 27 25.898438 27 25.898438 C 27 25.898438 27 25.699219 26.898438 25.300781 C 26.898438 25.101563 26.898438 24.800781 26.898438 24.601563 C 26.898438 24.300781 26.898438 24 27 23.601563 C 27 23.199219 27.101563 22.898438 27.300781 22.5 C 27.398438 22.101563 27.601563 21.699219 27.898438 21.300781 C 28.101563 20.898438 28.5 20.5 28.800781 20.199219 C 29.199219 19.898438 29.601563 19.5 30.101563 19.300781 C 30.601563 19 31 18.898438 31.5 18.800781 C 32 18.699219 32.5 18.601563 33 18.699219 C 33.5 18.699219 33.898438 18.800781 34.300781 18.898438 C 34.699219 19 35.101563 19.199219 35.398438 19.300781 C 35.699219 19.5 36 19.699219 36.199219 19.898438 C 36.398438 20.101563 36.601563 20.300781 36.699219 20.5 C 36.800781 20.699219 36.898438 20.800781 36.898438 20.898438 C 37 20.800781 37 20.898438 37 20.898438 Z M 24 30.101563 C 22.300781 30.101563 21 29.800781 21 30.601563 C 21 31.398438 22.601563 31.5 24 33 C 25.300781 31.601563 27 31.398438 27 30.601563 C 27 29.699219 25.699219 30.101563 24 30.101563 Z M 26 34 C 25 34 23.300781 34 22 34 C 20.699219 34 19 36 19 36 C 19 36 20.898438 39 24 39 C 27.101563 39 29 36 29 36 C 29 36 27 34 26 34 Z M 21.101563 23.5 C 21.101563 23.101563 21 22.800781 20.800781 22.398438 C 20.699219 22 20.5 21.601563 20.199219 21.199219 C 20.101563 21 19.898438 20.800781 19.800781 20.601563 C 19.601563 20.398438 19.5 20.199219 19.300781 20 C 18.898438 19.699219 18.5 19.300781 18 19.101563 C 17.5 18.800781 17 18.699219 16.601563 18.601563 C 16.101563 18.5 15.601563 18.398438 15.101563 18.5 C 14.601563 18.5 14.199219 18.601563 13.800781 18.699219 C 13.398438 18.800781 13 19 12.699219 19.101563 C 12.398438 19.199219 12.101563 19.5 11.898438 19.699219 C 11.699219 19.898438 11.5 20.101563 11.398438 20.300781 C 11.300781 20.5 11.199219 20.601563 11.199219 20.699219 C 11.199219 20.800781 11.101563 20.898438 11.101563 20.898438 C 11.101563 20.898438 12.101563 25 16.800781 25.898438 C 18.398438 26.199219 21.101563 25.898438 21.101563 25.898438 C 21.101563 25.898438 21.199219 25.699219 21.199219 25.300781 C 21.199219 25.101563 21.300781 24.800781 21.300781 24.601563 C 21.199219 24.199219 21.199219 23.898438 21.101563 23.5 Z "/>
<path style=" fill:#FDD835;" d="M 17 22 C 16.300781 21.800781 15.699219 21.601563 15.101563 21.398438 C 14.398438 21.800781 14 22.601563 14 23.5 C 14 24.898438 15.101563 26 16.5 26 C 17.898438 26 19 24.898438 19 23.5 C 18.300781 22.800781 17.601563 22.199219 17 22 Z "/>
<path style=" fill:#FDD835;" d="M 32.898438 21.398438 C 32.300781 21.601563 31.699219 21.699219 31 22 C 30.398438 22.199219 29.699219 22.800781 29 23.5 C 29 24.898438 30.101563 26 31.5 26 C 32.898438 26 34 24.898438 34 23.5 C 34 22.601563 33.601563 21.898438 32.898438 21.398438 Z "/>
<path style=" fill:#5D4037;" d="M 31 22 C 30.699219 22.101563 30.398438 22.300781 30 22.601563 C 30.101563 23.398438 30.699219 24 31.5 24 C 32.300781 24 33 23.300781 33 22.5 C 33 22.101563 32.898438 21.800781 32.601563 21.5 C 32.101563 21.601563 31.601563 21.800781 31 22 Z "/>
<path style=" fill:#90CAF9;" d="M 42 12.398438 C 42 13.800781 39 17.898438 39 22 C 39 24.800781 37 25 37 25 L 36.898438 25 C 37 24.300781 37 23.5 37 22.898438 C 37 22 37 21.101563 36.898438 20.199219 L 37 20 C 37 20 36.898438 18.398438 38 16 C 39.101563 13.601563 42 11 42 12.398438 Z M 11 22.898438 C 11 22 11 21.101563 11.101563 20.199219 L 11 20 C 11 20 11.101563 18.398438 10 16 C 8.898438 13.601563 6 11 6 12.398438 C 6 13.800781 9 17.898438 9 22 C 9 24.800781 11 25 11 25 L 11.101563 25 C 11 24.300781 11 23.5 11 22.898438 Z M 24 20 L 26 7.101563 C 25.398438 7 24.699219 7 24 7 C 23.300781 7 22.601563 7 22 7.101563 Z M 33.101563 9.300781 C 32.199219 8.699219 31.199219 8.199219 29.898438 7.800781 C 29.199219 8.800781 28.5 10.199219 28 11.5 C 27.800781 11.898438 27.699219 12.300781 27.601563 12.699219 C 27.5 13.101563 27.398438 13.5 27.300781 13.898438 C 27.199219 14.300781 27.199219 14.699219 27.101563 15 C 27 15.300781 27 15.699219 27 16 C 27 16.601563 27 17.101563 27 17.398438 C 27 17.800781 27 18 27 18 C 27 18 27.101563 17.800781 27.199219 17.5 C 27.300781 17.199219 27.5 16.699219 27.699219 16.101563 C 27.800781 15.800781 27.898438 15.5 28.101563 15.199219 C 28.300781 14.898438 28.398438 14.601563 28.601563 14.300781 C 28.800781 14 29 13.699219 29.199219 13.300781 C 29.398438 13 29.601563 12.699219 29.898438 12.398438 C 30.800781 11.199219 31.898438 10.101563 32.800781 9.5 C 32.898438 9.398438 33 9.398438 33.101563 9.300781 Z M 15.199219 9.5 C 16.101563 10.199219 17.199219 11.199219 18.101563 12.398438 C 18.300781 12.699219 18.601563 13 18.800781 13.300781 C 19 13.601563 19.199219 13.898438 19.398438 14.300781 C 19.601563 14.601563 19.699219 14.898438 19.898438 15.199219 C 20.101563 15.5 20.199219 15.800781 20.300781 16.101563 C 20.601563 16.601563 20.699219 17.101563 20.800781 17.5 C 20.898438 17.800781 21 18 21 18 C 21 18 21 17.800781 21 17.398438 C 21 17 21 16.5 20.898438 15.898438 C 20.898438 15.601563 20.800781 15.300781 20.800781 14.898438 C 20.699219 14.601563 20.699219 14.199219 20.601563 13.800781 C 20.5 13.398438 20.398438 13 20.300781 12.601563 C 20.199219 12.199219 20.101563 11.800781 19.898438 11.398438 C 19.398438 10 18.699219 8.699219 18 7.699219 C 16.699219 8.101563 15.699219 8.601563 14.800781 9.199219 C 15 9.398438 15.101563 9.398438 15.199219 9.5 Z "/>
<path style=" fill:#FFE0B2;" d="M 5 42 C 5 41.5 5.398438 41 6 41 L 10 41 C 10.5 41 11 41.5 11 42 C 11 42.5 10.601563 43 10 43 L 6 43 C 5.398438 43 5 42.5 5 42 Z M 43 42 C 43 41.5 42.5 41 42 41 L 38 41 C 37.5 41 37 41.5 37 42 C 37 42.5 37.5 43 38 43 L 42 43 C 42.5 43 43 42.5 43 42 Z "/>
<path style=" fill:#FFB74D;" d="M 5 45 C 5 44.5 5.398438 44 6 44 L 10 44 C 10.5 44 11 44.5 11 45 C 11 45.5 10.601563 46 10 46 L 6 46 C 5.398438 46 5 45.5 5 45 Z M 6 40 L 10 40 C 10.5 40 11 39.5 11 39 C 11 38.5 10.601563 38 10 38 L 6 38 C 5.5 38 5 38.5 5 39 C 5 39.5 5.398438 40 6 40 Z M 43 45 C 43 44.5 42.5 44 42 44 L 38 44 C 37.5 44 37 44.5 37 45 C 37 45.5 37.5 46 38 46 L 42 46 C 42.5 46 43 45.5 43 45 Z M 43 39 C 43 38.5 42.5 38 42 38 L 38 38 C 37.5 38 37 38.5 37 39 C 37 39.5 37.5 40 38 40 L 42 40 C 42.5 40 43 39.5 43 39 Z "/>
<path style=" fill:#5D4037;" d="M 17 22 C 16.398438 21.800781 15.898438 21.601563 15.398438 21.5 C 15.199219 21.800781 15 22.101563 15 22.5 C 15 23.300781 15.699219 24 16.5 24 C 17.300781 24 18 23.398438 18 22.601563 C 17.699219 22.300781 17.300781 22.101563 17 22 Z "/>
</g>
</svg>
