<?xml version="1.0" encoding="iso-8859-1"?>
<!-- Generator: Adobe Illustrator 22.1.0, SVG Export Plug-In . SVG Version: 6.00 Build 0)  -->
<svg xmlns="http://www.w3.org/2000/svg" xmlns:xlink="http://www.w3.org/1999/xlink" version="1.1" x="0px" y="0px" viewBox="0 0 48 48" style="enable-background:new 0 0 48 48;" xml:space="preserve" width="416px" height="416px">
<g id="Layer_1">
	<path style="fill:#424242;" d="M46,3c0,26-9.04,30.19-9.04,30.19c0.03-0.15-25.95-0.15-25.92,0C11.04,33.19,2,29,2,3   c0,0,7,12,22,12S46,3,46,3z"/>
	<g>
		<path style="fill:#1565C0;" d="M40,25c0,3-0.95,6-3,6h-1c0-5,0-7.82,0-7.82c0.54-0.68,1.27-1.42,2.05-2.18c1.02-1,2.054-4,2.054-4    C42.154,17,40,22,40,25z"/>
		<path style="fill:#1565C0;" d="M7.988,25c0,3,0.95,6,3,6h1c0-5,0-7.82,0-7.82c-0.54-0.68-1.27-1.42-2.05-2.18    c-1.02-1-2.054-4-2.054-4C5.834,17,7.988,22,7.988,25z"/>
	</g>
	<g>
		<path style="fill:#0D47A1;" d="M39,25c0,4-3,4-3,4c0-1-0.003-2.864,0-4l3-2.735C39,22.265,39,22,39,25z"/>
		<path style="fill:#0D47A1;" d="M8.988,25c0,4,3,4,3,4c0-1,0.003-2.864,0-4l-3-2.735C8.988,22.265,8.988,22,8.988,25z"/>
	</g>
	<path style="fill:#0D47A1;" d="M46,3c0,13-11,17.5-22,17.5S2,16,2,3c0,0,3,3,8,3c2,0,3-1,8-1c2,0,5.33,1,6,1s5-1,7-1c4,0,5,1,7,1   C43,6,46,3,46,3z"/>
	<path style="fill:#1976D2;" d="M36,23.38C36,16,30,16,30,16c-4,0-6,2-6,2s-2-2-6-2c0,0-6,0-6,7.38c0.01,2.13-1,8.74-1,9.37   c0,1.14,0.9,2.35,2.38,5.81c1.43,3.36,2.16,5.44,4.14,5.44H24h6.48c1.98,0,2.71-2.08,4.14-5.44C36.1,35.1,37,33.89,37,32.75   C37,32.12,35.99,25.51,36,23.38z"/>
	<g>
		<path style="fill:#1565C0;" d="M21.61,25.87L21,28.02h-3.06c-0.61,0-1.2-0.18-1.7-0.53c-0.42-0.28-2.6-1.5-4.33-2.46    c0.06-0.66,0.09-1.24,0.09-1.65c0-4.13,1.88-5.95,3.53-6.74c0.01-0.01,0.02-0.01,0.03-0.02c0.09-0.04,0.18-0.07,0.26-0.11    C15,18.04,15,20.22,15,20.22v0.87h0.87L21.61,25.87z"/>
		<path style="fill:#1565C0;" d="M26.39,25.87L27,28.02h3.06c0.61,0,1.2-0.18,1.7-0.53c0.42-0.28,2.6-1.5,4.33-2.46    C36.03,24.37,36,23.79,36,23.38c0-4.13-1.88-5.95-3.53-6.74c-0.01-0.01-0.02-0.01-0.03-0.02c-0.09-0.04-0.18-0.07-0.26-0.11    C33,18.04,33,20.22,33,20.22v0.87h-0.87L26.39,25.87z"/>
	</g>
	<path style="fill:#E0E0E0;" d="M32,34c0,0-1,1-3,1c-1,0-2-1-5-0.995C21,34.009,20,35,19,35c-2,0-3-1-3-1s0,4,2.223,4   c0,0,2.777-1.005,5.777-1.005S29.777,38,29.777,38C32,38,32,34,32,34z"/>
	<g>
		<path style="fill:#1565C0;" d="M11,32.751c0-0.4,0.406-3.193,0.701-5.732L13,28.667c0.649,0.865,1,1.918,1,3v8.347l0,0    c-0.195-0.454-0.397-0.93-0.618-1.448C11.9,35.097,11,33.888,11,32.751z"/>
		<path style="fill:#1565C0;" d="M37,32.664c0-0.4-0.406-3.193-0.701-5.732L35,28.58c-0.649,0.865-1,1.918-1,3v8.347l0,0    c0.195-0.454,0.397-0.93,0.618-1.448C36.1,35.01,37,33.801,37,32.664z"/>
	</g>
	<path style="fill:#1565C0;" d="M36.3,26.93c0.01,0.07,0.02,0.15,0.02,0.22c-0.01-0.07-0.02-0.14-0.03-0.21L36.3,26.93z"/>
	<path style="fill:#1565C0;" d="M36.98,32.4c-0.04-0.32-0.1-0.81-0.18-1.41c-0.07-0.58-0.16-1.25-0.25-1.97   c0.1,0.72,0.19,1.4,0.26,1.97C36.89,31.61,36.95,32.11,36.98,32.4z"/>
	<g>
		<path style="fill:#FAFAFA;" d="M29,34c0,0,0,2-1,3l1,1l1-1C30,37,30,35,29,34z"/>
		<path style="fill:#FAFAFA;" d="M19,34c0,0,0,2,1,3l-1,1l-1-1C18,37,18,35,19,34z"/>
	</g>
	<path style="fill:#1565C0;" d="M16,36.73c0,0,0.012,5.27,3.01,5.27c1.999,0,2.998-2.008,4.996-2.008S27.004,42,29.002,42   C32,42,32,36.73,32,36.73S26.001,38,24,38S16,36.73,16,36.73z"/>
	<path style="fill:#1E88E5;" d="M29,39c-2,0-2-1-5-1s-3,1-5,1s-3-1.057-3-2.465V34c0,0,0.716,3.126,2.778,3.047C20,37,21,36,24,36   s4,1,5,1c2.236,0,3-3,3-3v2.535C32,37.943,31,39,29,39z"/>
	<g>
		<path style="fill:#0D47A1;" d="M21,25v2l-0.106,0.211C20.306,28.388,20,29.685,20,31c1.5,0,3,1,3,1v-6h-1L21,25z"/>
		<path style="fill:#0D47A1;" d="M27.106,27.211L27,27v-2l-1,1h-1v4.125V32c0,0,1.5-1,3-1C28,29.685,27.694,28.388,27.106,27.211z"/>
	</g>
	<path style="fill:#1E88E5;" d="M26,26l-0.5,1c-0.315,0.63-0.315,1.37,0,2v0c0.315,0.63,0.315,1.37,0,2L25,32h-2l-0.5-1   c-0.315-0.63-0.315-1.37,0-2v0c0.315-0.63,0.315-1.37,0-2L22,26l2-1L26,26z"/>
	<g>
		<path style="fill:#EFEBE9;" d="M20,24h-3.286C15.857,24,15,25.434,15,25.434c1.543,0,2,0.566,3,0.566s1.457-0.566,3-0.566    C21,25.434,20.857,24,20,24z"/>
		<path style="fill:#EFEBE9;" d="M28,24h3.286C32.143,24,33,25.434,33,25.434c-1.543,0-2,0.566-3,0.566s-1.457-0.566-3-0.566    C27,25.434,27.143,24,28,24z"/>
	</g>
	<g>
		<circle style="fill:#90CAF9;" cx="18" cy="25" r="1"/>
		<circle style="fill:#90CAF9;" cx="30" cy="25" r="1"/>
	</g>
	<g>
		<g>
			<path style="fill:#424242;" d="M22,26v-3c-2,0-4.167-2-6.667-2C13.667,21,12,21.8,12,21.8l0.833,0.8v1.6c0,0,1.328-0.8,2.5-0.8     C17.208,23.4,19.5,26,22,26z"/>
		</g>
		<g>
			<path style="fill:#424242;" d="M26,26v-3c2,0,4.167-2,6.667-2C34.333,21,36,21.8,36,21.8l-0.833,0.8v1.6c0,0-1.328-0.8-2.5-0.8     C30.792,23.4,28.5,26,26,26z"/>
		</g>
	</g>
</g>
<g id="Layer_2">
</g>
</svg>
