<?xml version="1.0" encoding="utf-8"?>
<!-- Generator: Adobe Illustrator 21.0.2, SVG Export Plug-In . SVG Version: 6.00 Build 0)  -->
<svg xmlns="http://www.w3.org/2000/svg" xmlns:xlink="http://www.w3.org/1999/xlink" version="1.1" id="Layer_1" x="0px" y="0px" viewBox="0 0 48 48" style="enable-background:new 0 0 48 48;" xml:space="preserve" width="416px" height="416px">
<g id="Layer_1_1_">
	<g>
		<path style="fill:#B0BEC5;" d="M38,11v4.6l1.5-1.2c0.3-0.3,0.5-0.6,0.5-1.1v-1c0-0.2,0-0.4,0.1-0.6l0.7-1.4C41,10.1,41,9.9,41,9.7    V8.4L38,11z"/>
		<path style="fill:#B0BEC5;" d="M10,11v4.6l-1.5-1.2C8.2,14.1,8,13.8,8,13.3v-1c0-0.2,0-0.4-0.1-0.6l-0.7-1.4C7,10.1,7,9.9,7,9.7    V8.4L10,11z"/>
	</g>
	<g>
		<path style="fill:#90A4AE;" d="M37.2,14.5l0,1.8l2.3-1.8c0.3-0.3,0.5-0.6,0.5-1.1v-1L37.2,14.5z"/>
		<path style="fill:#90A4AE;" d="M10.8,14.5l0,1.8l-2.3-1.8C8.2,14.1,8,13.8,8,13.3v-1L10.8,14.5z"/>
	</g>
	<g>
		<path style="fill:#CFD8DC;" d="M37,10.2l0,2.1c0,0.4-0.2,0.8-0.5,1.1L35,14.5V18l2.2-1.8c0.5-0.4,0.8-1,0.8-1.7V12    c0-0.6,0.3-1.3,0.8-1.7L41,8.4c0-0.3,0.1-0.6,0.3-0.8L41.7,7C41.9,6.8,42,6.5,42,6.2V4l-4.7,5.3C37.1,9.5,37,9.9,37,10.2z"/>
		<path style="fill:#CFD8DC;" d="M11,10.2l0,2.1c0,0.4,0.2,0.8,0.5,1.1l1.5,1.1V18l-2.2-1.8c-0.5-0.4-0.8-1-0.8-1.7V12    c0-0.6-0.3-1.3-0.8-1.7L7,8.4c0-0.3-0.1-0.6-0.3-0.8L6.3,7C6.1,6.8,6,6.5,6,6.2V4l4.7,5.3C10.9,9.5,11,9.9,11,10.2z"/>
	</g>
	<path style="fill:#1565C0;" d="M34,38.2V26H14v12.2c0,1.1-0.6,2-1.5,2.6C9.1,42.9,6,46,6,46h36c0,0-3.1-3.1-6.5-5.2   C34.6,40.3,34,39.3,34,38.2z"/>
	<g>
		<path style="fill:#FFA726;" d="M35,21.8c0,0,0.3-2.8,3-2.8c1,0,1,2.7,1,3.5c0,1-1,2.5-1,3v0.8c0,1-1.5,2.8-3,2.8V21.8z"/>
		<path style="fill:#FFA726;" d="M13,21.8c0,0-0.3-2.8-3-2.8c-1,0-1,2.7-1,3.5c0,1,1,2.5,1,3v0.8c0,1,1.5,2.8,3,2.8    C13,29,13,21.8,13,21.8z"/>
	</g>
	<path style="fill:#FFB74D;" d="M24,12c-11.7,0-12,0-12,0c0,3.7,0,20.6,0,20.6c0,0.9,0.4,1.7,1,2.3l6.1,5.4c0.5,0.5,1.2,0.7,2,0.7   h5.7c0.7,0,1.4-0.3,2-0.7l6.1-5.4c0.7-0.6,1-1.4,1-2.3c0,0,0-16.9,0-20.6C36,12,35.7,12,24,12z"/>
	<path style="fill:#1E88E5;" d="M24,2C12.3,2,12,12,12,12c0,3.7,0,20.6,0,20.6c0,0.9,0.4,1.7,1,2.3l2,1.7L14,28c3,0,9-4,10-4   s7,4,10,4l-1,8.6l2-1.7c0.7-0.6,1-1.4,1-2.3c0,0,0-16.9,0-20.6C36,12,35.7,2,24,2z"/>
	<path style="fill:#FB8C00;" d="M20.4,34.7l-0.9-1.8c0.1,0,1.8-0.9,4.4-0.9c2.6,0,4.4,0.9,4.4,0.9l-0.9,1.8c0,0-1.4-0.7-3.6-0.7   C21.9,34,20.5,34.7,20.4,34.7z"/>
	<g>
		<path style="fill:#1976D2;" d="M36,32.6V25c0,0-1.6,1.2-2,1.7c-0.7,0.8-1,1.3-1,2.3v7.6l2-1.7C35.6,34.3,36,33.5,36,32.6z"/>
		<path style="fill:#1976D2;" d="M12,32.6V25c0,0,1.6,1.2,2,1.7c0.7,0.8,1,1.3,1,2.3v7.6l-2-1.7C12.4,34.3,12,33.5,12,32.6z"/>
	</g>
	<g>
		<g>
			<path style="fill:#1976D2;" d="M36,16.6c0,3.2,0,6.4,0,6.4s-1-1-4-1V6.2c0-0.8-0.3-1.6-0.6-2.3c4.1,2.6,4.5,7.2,4.6,8     c0,0,0,0,0,0c0,0,0,0,0,0C36,13.2,36,14.9,36,16.6z"/>
		</g>
		<g>
			<path style="fill:#1976D2;" d="M16.6,3.9C16.3,4.6,16,5.4,16,6.2V22c-3,0-4,1-4,1s0-3.2,0-6.4c0-1.7,0-3.4,0-4.7c0,0,0,0,0,0     C12.1,11.1,12.5,6.6,16.6,3.9z"/>
		</g>
	</g>
	<g>
		<path style="fill:#FFB74D;" d="M25.2,21.2c1-1.6,3.8-4.9,8.2-5.2c0.4,0,0.8,0.2,1,0.6c0.3,0.7,0.7,2,0.7,4.4    c0,1.8-0.4,2.9-0.7,3.5c-0.2,0.3-0.6,0.5-0.9,0.5c-4.1-0.1-6.7-1.6-7.9-2.4C25,22.3,24.9,21.7,25.2,21.2z"/>
		<path style="fill:#FFB74D;" d="M22.8,21.2c-1-1.6-3.8-4.9-8.2-5.2c-0.4,0-0.8,0.2-1,0.6c-0.3,0.7-0.7,2-0.7,4.4    c0,1.8,0.4,2.9,0.7,3.5c0.2,0.3,0.6,0.5,0.9,0.5c4.1-0.1,6.7-1.6,7.9-2.4C23,22.3,23.1,21.7,22.8,21.2z"/>
	</g>
	<g>
		<path style="fill:#EEEEEE;" d="M21,21.9c0,0-1.3,1.1-3,1.1s-3-0.9-3-1.1c0-0.9,0.3-2.2,2-2.2S21,21.9,21,21.9z"/>
		<path style="fill:#EEEEEE;" d="M27,21.9c0,0,1.3,1.1,3,1.1s3-0.8,3-1.1c0-0.9-0.3-2.2-2-2.2C29.3,19.8,27,21.9,27,21.9z"/>
	</g>
	<g>
		<path style="fill:#424242;" d="M22,22c-3.4-1.3-4.1-4-6.5-4S13,21,13,21s0.8-1,2.3-1C17.5,20,19.2,22,22,22z"/>
		<path style="fill:#424242;" d="M26,22c3.4-1.3,4.1-4,6.5-4s2.5,3,2.5,3s-0.8-1-2.3-1C30.5,20,28.8,22,26,22z"/>
	</g>
	<g>
		<path style="fill:#90CAF9;" d="M17,22c0,0.6,0.4,1,1,1s1-0.4,1-1s-0.4-1-1-1S17,21.4,17,22"/>
		<path style="fill:#90CAF9;" d="M31,22c0,0.6-0.4,1-1,1s-1-0.4-1-1s0.4-1,1-1S31,21.4,31,22"/>
	</g>
	<path style="fill:#CFD8DC;" d="M27.5,6h-7.1L18,15.6l2.9,0.7l0.6-2.4h4.9l0.6,2.4l2.9-0.7L27.5,6z M22.3,11l0.5-2h2.4l0.5,2H22.3z"/>
</g>
<g id="Layer_2">
</g>
</svg>
