<?xml version="1.0" encoding="iso-8859-1"?>
<!-- Generator: Adobe Illustrator 22.1.0, SVG Export Plug-In . SVG Version: 6.00 Build 0)  -->
<svg xmlns="http://www.w3.org/2000/svg" xmlns:xlink="http://www.w3.org/1999/xlink" version="1.1" x="0px" y="0px" viewBox="0 0 48 48" style="enable-background:new 0 0 48 48;" xml:space="preserve" width="48px" height="48px">
<g id="Layer_1">
	<g>
		<path style="fill:#424242;" d="M33.024,6.083C30.405,3.793,27.905,3,24,3s-6.405,0.793-9.024,3.083C13,4,11,2,11,2s0,3,0,16    c0,11,3,15,3.135,15.003c0,0,4.96-0.003,9.865-0.003s9.865,0.003,9.865,0.003C34,33,37,29,37,18c0-13,0-16,0-16S35,4,33.024,6.083    z"/>
		<path style="fill:#424242;" d="M17,35v8.49c0.31,0.15,0.62,0.28,0.93,0.39C19.82,44.61,21.86,45,24,45s4.18-0.39,6.07-1.12    c0.31-0.11,0.62-0.24,0.93-0.39V35h-7H17z"/>
	</g>
	<path style="fill:#FFB74D;" d="M23,22.99L14,16v16.468c0,0.333,0.076,0.667,0.237,0.958c1.258,2.278,3.092,3.945,4.831,5.123   c2.89,1.958,6.711,1.939,9.556-0.083c1.632-1.16,3.449-2.779,5.012-4.966C33.877,33.165,34,32.754,34,32.34V16l-9,6.99H23z"/>
	<rect x="22" y="22" style="fill:#616161;" width="4" height="2"/>
	<g>
		<path style="fill:#E1BEE7;" d="M36,21c0-5.203-1.053-5.426-1.053-5.426c-6.818,0-9.947,5.429-9.947,7.661S28.154,28,31.095,28    S36,25.162,36,21z"/>
		<path style="fill:#E1BEE7;" d="M12,21c0-5.203,1.053-5.426,1.053-5.426c6.818,0,9.947,5.429,9.947,7.661S19.846,28,16.905,28    S12,25.162,12,21z"/>
	</g>
	<g>
		<path style="fill:#616161;" d="M35.931,21.116c0-5.203-0.983-5.542-0.983-5.542S36.965,13.923,38,12c0,0,0,2,0,8    c0,4.976-4.731,7.408-4.731,7.408C34.936,26.392,35.931,24.132,35.931,21.116z"/>
		<path style="fill:#616161;" d="M12.069,21.116c0-5.203,0.983-5.542,0.983-5.542S11.035,13.923,10,12c0,0,0,2,0,8    c0,4.976,4.731,7.408,4.731,7.408C13.064,26.392,12.069,24.132,12.069,21.116z"/>
	</g>
	<path style="fill:#880E4F;" d="M25,32c-0.75,0-1,1-1,1s-0.042-1-1-1s-3,1-3,1s2.2,2,4,2s4-2,4-2S25.75,32,25,32z"/>
	<g>
		<path style="fill:#F3E5F5;" d="M27,24c0,0,0.634-3,3.171-3C32.396,21,33,22.333,33,22.333S32.073,24,30.463,24    C28.854,24,28.979,24,27,24z"/>
		<path style="fill:#F3E5F5;" d="M21,24c0,0-0.634-3-3.171-3C15.604,21,15,22.333,15,22.333S15.927,24,17.537,24S19.021,24,21,24z"/>
	</g>
	<g>
		<circle style="fill:#90CAF9;" cx="29.5" cy="22.5" r="1.5"/>
		<circle style="fill:#90CAF9;" cx="18.5" cy="22.5" r="1.5"/>
	</g>
	<g>
		<circle style="fill:#263238;" cx="29.5" cy="22.5" r="0.5"/>
		<circle style="fill:#263238;" cx="18.5" cy="22.5" r="0.5"/>
	</g>
	<g>
		<path style="fill:#424242;" d="M22,23c-2.7-1.25-4.139-4-6.114-4s-2.886,3.062-2.886,3.062S14,20.578,16,20.578    C17.8,20.578,19.75,23,22,23z"/>
		<path style="fill:#424242;" d="M26,23c2.7-1.25,4.025-4,6-4s2.999,3.062,2.999,3.062S34,20.578,32,20.578    C30.2,20.578,28.25,23,26,23z"/>
	</g>
</g>
<g id="Layer_2">
</g>
</svg>
