<?xml version="1.0" encoding="iso-8859-1"?>
<!-- Generator: Adobe Illustrator 21.1.0, SVG Export Plug-In . SVG Version: 6.00 Build 0)  -->
<svg xmlns="http://www.w3.org/2000/svg" xmlns:xlink="http://www.w3.org/1999/xlink" version="1.1" id="Layer_1" x="0px" y="0px" viewBox="0 0 48 48" style="enable-background:new 0 0 48 48;" xml:space="preserve" width="416px" height="416px">
<g>
	<path style="fill:#039BE5;" d="M43,38c0,0,0-7.626,0-9.961C43,26.013,41,25,40.429,25C39.014,25,37,27.381,37,29.053V38H43z"/>
	<path style="fill:#039BE5;" d="M5,38c0,0,0-7.626,0-9.961C5,26.013,7,25,7.571,25C8.986,25,11,27.381,11,29.053V38H5z"/>
</g>
<g>
	<path style="fill:#AED581;" d="M13,24.54V29H5.63c-0.08-0.3-0.15-0.6-0.21-0.92h0.01C5.17,26.78,5,25.31,5,23.65   C5,21.88,6.54,21,8.43,21C10.31,21,13,23.08,13,24.54z"/>
	<path style="fill:#AED581;" d="M35,24.54V29h7.37c0.08-0.3,0.15-0.6,0.21-0.92h-0.01c0.26-1.3,0.43-2.77,0.43-4.43   c0-1.77-1.54-2.65-3.43-2.65C37.69,21,35,23.08,35,24.54z"/>
</g>
<path style="fill:#E7EBED;" d="M39,9.8V29H9V9.8C9,7.112,10.65,5,12.75,5c1.8,0,3.257,1.546,3.654,3.667  c4.846-0.792,10.346-0.792,15.193,0.01C31.982,6.546,33.45,5,35.25,5C37.35,5,39,7.112,39,9.8z"/>
<g>
	<path style="fill:#FFCCBC;" d="M36,18.5c0,4.21-5.269,7.5-12,7.5s-12-3.29-12-7.5S17.269,11,24,11S36,14.29,36,18.5z"/>
	<rect x="5" y="38" style="fill:#FFCCBC;" width="4" height="6"/>
	<rect x="39" y="38" style="fill:#FFCCBC;" width="4" height="6"/>
</g>
<g>
	<path style="fill:#7CB342;" d="M13,29v2.62c0,0.96,0,5.31,0,5.31s-1.71,0.44-3.43-0.89C8.96,35.57,6.74,33.36,5.63,29H13z"/>
	<path style="fill:#7CB342;" d="M35,29v2.62c0,0.96,0,5.31,0,5.31s1.71,0.44,3.43-0.89c0.61-0.47,2.83-2.68,3.94-7.04H35z"/>
</g>
<g>
	<circle style="fill:#212121;" cx="31" cy="16" r="1"/>
	<circle style="fill:#212121;" cx="17" cy="16" r="1"/>
	<g>
		<path style="fill:#212121;" d="M24.001,20c-1.736,0-3.347-0.409-4.532-1.153c-0.468-0.293-0.609-0.91-0.316-1.378    c0.295-0.468,0.912-0.608,1.379-0.316C21.39,17.691,22.655,18,24.001,18c1.345,0,2.608-0.309,3.469-0.847    c0.467-0.293,1.085-0.152,1.378,0.317c0.293,0.468,0.151,1.085-0.317,1.378C27.345,19.591,25.735,20,24.001,20z"/>
	</g>
</g>
<path style="fill:#29B6F6;" d="M39,26v18H9V26l1.54,0.604c3.45,1.335,8.36,2.109,13.46,2.109s10.01-0.774,13.46-2.109L39,26z"/>
</svg>
