<?xml version="1.0" encoding="utf-8"?>
<!-- Generator: Adobe Illustrator 21.0.2, SVG Export Plug-In . SVG Version: 6.00 Build 0)  -->
<svg xmlns="http://www.w3.org/2000/svg" xmlns:xlink="http://www.w3.org/1999/xlink" version="1.1" id="Layer_1" x="0px" y="0px" viewBox="0 0 48 48" style="enable-background:new 0 0 48 48;" xml:space="preserve" width="416px" height="416px">
<g id="Layer_1_1_">
	<rect x="13" y="33" style="fill:#424242;" width="22" height="11"/>
	<polygon style="fill:#FFA726;" points="24,36 17,36 17,44 31,44 31,36  "/>
	<path style="fill:#FFB74D;" d="M34,13L24,9l-10,4c0,0.8,0,2.2,0,4l0,0v16.5c0,0.3,0.1,0.7,0.2,1c1.3,2.3,3.1,3.9,4.8,5.1   c2.9,2,6.7,1.9,9.6-0.1c1.6-1.2,3.4-2.8,5-5c0.2-0.3,0.4-0.7,0.4-1.2V17l0,0C34,15.2,34,13.8,34,13z"/>
	<rect x="14" y="11" style="fill:#FDD835;" width="20" height="5"/>
	<path style="fill:#424242;" d="M26,4c15,0,15,13,15,13l2,27h-9c0,0,0-24.3,0-24.7v0c-0.1-6.5-4-8.3-10-8.3s-9.9,1.9-10,8.3   c0,0.4,0,24.7,0,24.7H5l2-27C7,17,8,2,22,2C25,2,26,4,26,4z"/>
	<g>
		<path style="fill:#EFEBE9;" d="M27,25c0,0,0.6-3,3.2-3c2.2,0,2.8,1.3,2.8,1.3S32.1,25,30.5,25C28.9,25,29,25,27,25z"/>
		<path style="fill:#EFEBE9;" d="M21,25c0,0-0.6-3-3.2-3c-2.2,0-2.8,1.3-2.8,1.3s0.9,1.6,2.5,1.6S19,25,21,25z"/>
	</g>
	<g>
		<path style="fill:#0097A7;" d="M31,23.5c0,0.8-0.7,1.5-1.5,1.5S28,24.3,28,23.5c0-0.2,0-0.5,0.2-0.7c0.4-0.4,0.9-0.7,1.6-0.8h0    C30.5,22.2,31,22.8,31,23.5z"/>
		<path style="fill:#0097A7;" d="M17,23.5c0,0.8,0.7,1.5,1.5,1.5s1.5-0.7,1.5-1.5c0-0.2,0-0.5-0.2-0.7c-0.4-0.4-0.9-0.7-1.6-0.8h0    C17.5,22.2,17,22.8,17,23.5z"/>
	</g>
	<g>
		<ellipse style="fill:#263238;" cx="29.5" cy="23.5" rx="0.5" ry="0.5"/>
		<ellipse style="fill:#263238;" cx="18.5" cy="23.5" rx="0.5" ry="0.5"/>
	</g>
	<g>
		<path style="fill:#424242;" d="M27,25c0,0,0.6-3,3.2-3c2.2,0,2.8,1.3,2.8,1.3s0-0.3-3-0.3C28.4,23,27,25,27,25z"/>
		<path style="fill:#424242;" d="M25,23c2.7-1.3,4-4,6-4s3,3.1,3,3.1s-1-1.5-3-1.5C29.2,20.6,27.3,23,25,23z"/>
		<path style="fill:#424242;" d="M21,25c0,0-0.6-3-3.2-3c-2.2,0-2.8,1.3-2.8,1.3s0-0.3,3-0.3C19.6,23,21,25,21,25z"/>
		<path style="fill:#424242;" d="M23,23c-2.7-1.3-4-4-6-4s-3,3.1-3,3.1s1-1.5,3-1.5C18.8,20.6,20.8,23,23,23z"/>
	</g>
	<g>
		<path style="fill:#FF5252;" d="M25.3,33c-1.1,0-1.3,1-1.3,1s0-1-1.3-1c-1.3,0-2.7,1-2.7,1s1,2,4,2s4-2,4-2S26.4,33,25.3,33z"/>
		<circle style="fill:#FF5252;" cx="24" cy="14" r="3"/>
	</g>
	<g>
		<path style="fill:#FDD835;" d="M24,19c-2.8,0-5-2.2-5-5s2.2-5,5-5s5,2.2,5,5S26.8,19,24,19z M24,11c-1.7,0-3,1.3-3,3s1.3,3,3,3    s3-1.3,3-3S25.7,11,24,11z"/>
		<path style="fill:#FDD835;" d="M24,19c-2.8,0-5-2.2-5-5c0-0.5,0.1-1,0.1-1.6l0.1-0.5c0.1-0.9,0.1-3.1-1.6-4    c-0.5-0.2-0.7-0.8-0.4-1.3s0.8-0.7,1.3-0.4c2,1,3,3.2,2.7,6l-0.1,0.6c-0.1,0.5-0.1,1-0.1,1.3c0,1.7,1.3,3,3,3s3-1.3,3-3    c0-0.4-0.1-0.8-0.1-1.4l-0.1-0.6c-0.3-2.8,0.7-5,2.7-6c0.5-0.2,1.1,0,1.3,0.4c0.2,0.5,0,1.1-0.4,1.3c-1.7,0.9-1.7,3.1-1.6,4    l0.1,0.5C28.9,13,29,13.5,29,14C29,16.8,26.8,19,24,19z"/>
	</g>
</g>
<g id="Layer_2">
</g>
</svg>
