<svg enable-background="new 0 0 48 48" height="416" viewBox="0 0 48 48" width="416" xmlns="http://www.w3.org/2000/svg"><path d="m44 23c0 2 0 7-3 7-1.5 0-2.5-.5-3-1v15h-28v-15c-.5.5-1.5 1-3 1-2.956 0-3-5-3-7 0-8 7-18 20-18s20 10 20 18z" fill="#fbc02d"/><path d="m30 24s-.72 5.06-4.01 6.57c-.02.01-.04.02-.06.03-.03.01-.06.03-.09.04.1-.2.16-.42.16-.64 0-1.1-1.34-2-3-2-1.24 0-2.3.5-2.75 1.21-.11-.11-.2-.22-.29-.34-1.55-2.06-1.96-4.87-1.96-4.87s2.69 2 6 2 6-2 6-2z" fill="#821616"/><path d="m26 30c0 .22-.06.44-.16.64-.55.22-1.16.36-1.84.36-1.55 0-2.72-.67-3.59-1.6-.06-.06-.11-.12-.16-.19.45-.71 1.51-1.21 2.75-1.21 1.66 0 3 .9 3 2z" fill="#e57373"/><path d="m41 30v14h-3v-15c.5.5 1.5 1 3 1z" fill="#f9a825"/><path d="m10 29v15h-3v-14c1.5 0 2.5-.5 3-1z" fill="#f9a825"/><path d="m24 16.01c-11.46.28-10.447 10.07-9.402 12.99.637 1.77 1.964 3 3.134 3 3.134 0 3.677-5.08 4.179-8 .198-1.23 1.16-1.72 2.089-1.84.93.12 1.891.61 2.089 1.84.501 2.92 1.045 8 4.179 8 1.17 0 2.497-1.23 3.134-3 1.045-2.92 2.058-12.71-9.402-12.99z" fill="#ffa000"/><g fill="#212121"><path d="m16.54 18.55c-1 .94-1.64 2.07-2.03 3.23-2.03-.64-3.51-2.54-3.51-4.78 0-2.29 1.55-4.23 3.65-4.81-.42.67-.65 1.47-.65 2.31 0 1.79 1.03 3.33 2.54 4.05z"/><path d="m36.99 17.25c-.1 2.14-1.54 3.92-3.5 4.53-.8-2.38-2.64-4.59-6.44-5.42.22-1.83 1.45-3.35 3.1-4.01-.1.37-.15.75-.15 1.15 0 2.49 2.01 4.5 4.5 4.5.92 0 1.78-.27 2.49-.75z"/><ellipse cx="24" cy="22" rx="4" ry="2"/></g><path d="m20.95 16.36c-1.94.42-3.37 1.21-4.41 2.19-1.51-.72-2.54-2.26-2.54-4.05 0-.84.23-1.64.65-2.31.43-.13.88-.19 1.35-.19 2.54 0 4.64 1.9 4.95 4.36z" fill="#fafafa"/><path d="m37 17c0 .08 0 .17-.01.25-.71.48-1.57.75-2.49.75-2.49 0-4.5-2.01-4.5-4.5 0-.4.05-.78.15-1.15.57-.22 1.2-.35 1.85-.35 2.76 0 5 2.24 5 5z" fill="#fafafa"/></svg>