<?xml version="1.0" encoding="iso-8859-1"?>
<!-- Generator: Adobe Illustrator 22.1.0, SVG Export Plug-In . SVG Version: 6.00 Build 0)  -->
<svg xmlns="http://www.w3.org/2000/svg" xmlns:xlink="http://www.w3.org/1999/xlink" version="1.1" x="0px" y="0px" viewBox="0 0 48 48" style="enable-background:new 0 0 48 48;" xml:space="preserve" width="48px" height="48px">
<g id="Layer_1">
	<path style="fill:#E64A19;" d="M11.807,19.004C11.807,19.004,7,18,7,13C7,7,12,2,19,2c16,0,21,12.091,21,20c0,8.062,7,8.326,7,15   c0,7-3,8-3,8H26l-0.001-26L11.807,19.004z"/>
	<g>
		<path style="fill:#FF6F00;" d="M37.68,36.67c0.1,1.81-0.28,3.71-1.14,5.35c-0.56,1.11-1.31,2.1-2.17,2.98h-2.72    c1.42-1,2.65-2.25,3.49-3.73c0.79-1.38,1.17-2.95,1.16-4.58c0.04-1.66-0.18-3.28-0.8-4.82c-0.29-0.78-0.66-1.57-0.95-2.41    c-0.29-0.84-0.5-1.71-0.63-2.58s-0.19-1.74-0.2-2.61c-0.01-0.88,0.03-1.73-0.02-2.57c-0.25-3.38-1.2-6.78-3.09-9.66    c2.02,2.79,3.16,6.17,3.57,9.62c0.1,0.87,0.11,1.74,0.16,2.58c0.07,0.84,0.17,1.68,0.34,2.5c0.18,0.82,0.42,1.62,0.74,2.39    c0.31,0.77,0.71,1.52,1.08,2.32C37.26,33.07,37.62,34.91,37.68,36.67z"/>
		<path style="fill:#FF6F00;" d="M42.42,40.28c-0.33,1.66-0.98,3.29-1.93,4.72h-2.26c0.25-0.28,0.49-0.57,0.71-0.86    c0.93-1.23,1.6-2.67,1.98-4.19c0.36-1.51,0.5-3.16,0.29-4.68c-0.19-1.55-0.97-2.89-1.96-4.24c-0.99-1.34-1.91-2.91-2.24-4.61    c-0.19-0.84-0.27-1.7-0.29-2.55c0-0.86,0.03-1.66-0.05-2.48c-0.28-3.27-1.23-6.56-3.06-9.35c1.97,2.7,3.08,5.97,3.54,9.3    c0.11,0.83,0.12,1.7,0.17,2.5c0.06,0.82,0.19,1.63,0.4,2.4c0.41,1.57,1.29,2.9,2.34,4.18c0.51,0.65,1.05,1.34,1.49,2.11    c0.44,0.78,0.76,1.63,0.93,2.51C42.83,36.81,42.74,38.55,42.42,40.28z"/>
	</g>
	<path style="fill:#BF360C;" d="M25,29h3c0,3,2,8,2,11s-2,5-2,5l-3,0V29z"/>
	<path style="fill:#E64A19;" d="M10,13c0,0-8,0.624-8,7c0,7,2,7,2,13c0,1.3-2,4-2,6c0,5,4,6,7,6c1,0,6,0,6,0L10,13z"/>
	<g>
		<path style="fill:#0D47A1;" d="M10,24.75c0,0-0.307-2.75-2.997-2.75C6,22,6.004,24.731,6.004,25.5c0,1,0.999,2.487,0.999,3v0.75    c0,1,1.499,2.75,2.997,2.75V24.75z"/>
		<path style="fill:#0D47A1;" d="M28.004,24.75c0,0,0.307-2.75,2.997-2.75C32.004,22,32,24.731,32,25.5c0,1-0.999,2.487-0.999,3    v0.75c0,1-1.499,2.75-2.997,2.75V24.75z"/>
	</g>
	<polygon style="fill:#FF9800;" points="19,37 12,37 12,45 26,45 26,37  "/>
	<path style="fill:#FFB74D;" d="M30,16.99v14.36c0,3.43-1.78,6.65-4.78,8.61l-0.13,0.09l-3.17,2.09c-1.75,1.15-4.09,1.15-5.84,0   l-3.17-2.09l-0.13-0.09C9.78,38,8,34.78,8,31.35V16.99H30z"/>
	<path style="fill:#D32F2F;" d="M20,34c-0.75,0-1,1-1,1s-0.042-1-1-1s-3,1-3,1s2.2,2,4,2s4-2,4-2S20.75,34,20,34z"/>
	<g>
		<path style="fill:#EFEBE9;" d="M22,26c0,0,0.634-2.97,3.171-2.97c2.225,0,2.829,1.32,2.829,1.32S27.073,26,25.463,26    S23.979,26,22,26z"/>
		<path style="fill:#EFEBE9;" d="M15.999,26c0,0-0.634-2.97-3.171-2.97c-2.225,0-2.829,1.32-2.829,1.32S10.926,26,12.536,26    S14.02,26,15.999,26z"/>
	</g>
	<g>
		<path style="fill:#2E7D32;" d="M26,24.497C26,25.329,25.33,26,24.5,26S23,25.329,23,24.497c0-0.24,2.401-1.244,2.61-1.014    C25.853,23.75,26,24.105,26,24.497z"/>
		<path style="fill:#2E7D32;" d="M11.999,24.5c0,0.83,0.67,1.5,1.5,1.5s1.5-0.67,1.5-1.5c0-0.24-2.368-1.26-2.573-1.052    C12.161,23.718,11.999,24.088,11.999,24.5z"/>
	</g>
	<g>
		<path style="fill:#424242;" d="M22,25.97c0,0,0.634-2.97,3.171-2.97C27.396,23,28,24.32,28,24.32s0-0.33-3-0.33    C23.39,23.99,22,25.97,22,25.97z"/>
		<path style="fill:#424242;" d="M20,24c2.7-1.25,4.025-4,6-4s2.999,3.062,2.999,3.062S28,21.578,26,21.578    C24.2,21.578,22.25,24,20,24z"/>
		<path style="fill:#424242;" d="M15.999,25.97c0,0-0.634-2.97-3.171-2.97c-2.225,0-2.829,1.32-2.829,1.32s0-0.33,3-0.33    C14.609,23.99,15.999,25.97,15.999,25.97z"/>
		<path style="fill:#424242;" d="M17.999,24c-2.7-1.25-4.025-4-6-4S9,23.062,9,23.062s0.999-1.484,2.999-1.484    C13.799,21.578,15.75,24,17.999,24z"/>
	</g>
	<g>
		<circle style="fill:#424242;" cx="24.5" cy="24.5" r="0.5"/>
		<circle style="fill:#424242;" cx="13.5" cy="24.5" r="0.5"/>
	</g>
	<path style="fill:#0D47A1;" d="M28,14c1.105,0,2,0.895,2,2v15.35c0,3.43-1.78,6.65-4.78,8.61l-0.13,0.09L26,31l2-4v-8c-3,0-9,4-9,4   s-6-4-9-4v8l2,4l0.91,9.05l-0.13-0.09C9.78,38,8,34.78,8,31.35V16c0-1.105,0.895-2,2-2H28z"/>
	<polygon style="fill:#BA68C8;" points="23,19 19,21 15,19 15,16 23,16  "/>
</g>
<g id="Layer_2">
</g>
</svg>
