<?xml version="1.0" encoding="iso-8859-1"?>
<!-- Generator: Adobe Illustrator 21.1.0, SVG Export Plug-In . SVG Version: 6.00 Build 0)  -->
<svg xmlns="http://www.w3.org/2000/svg" xmlns:xlink="http://www.w3.org/1999/xlink" version="1.1" id="Layer_1" x="0px" y="0px" viewBox="0 0 48 48" style="enable-background:new 0 0 48 48;" xml:space="preserve" width="48px" height="48px">
<path style="fill:#151A43;" d="M42,30.16c0,3.42-0.36,6.75-0.68,9.69c-0.12,1.13-0.23,2.21-0.32,3.24C40.95,43.6,40.52,44,40,44  H9.07c-0.28,0-0.55-0.12-0.74-0.33s-0.28-0.49-0.25-0.77c0.03-0.31,0.04-0.59,0.04-0.85c0-3.02-0.63-6.65-1.18-9.85  C6.45,29.44,6,26.83,6,24.93c0-8.45,4.54-15.61,10.64-16.94C18.34,4.94,21.79,3,25.59,3c4.8,0,8.95,3.1,10.94,6.16  C40,14.53,42,22.19,42,30.16z"/>
<path style="fill:#B71C1C;" d="M33.58,40H16.42c0.82-3.41,2.58-4,2.58-4h12C31,36,32.76,36.59,33.58,40z"/>
<path style="fill:#821616;" d="M34,44H16c0-1.64,0.17-2.95,0.42-4h17.16C33.83,41.05,34,42.36,34,44z"/>
<path style="fill:#BBDEFB;" d="M32,24.25c0,3.5-4,4.37-4,7.87c0,2.35,1,2.88,3,3.88l-6,4l-6-4c2-1,3-1.68,3-3.88  c0-3.5-5-3.75-5-8.12c0-2.63,4-8.5,4-12l11,12V24.25z"/>
<g>
	<circle style="fill:#212121;" cx="21" cy="21" r="1"/>
	<circle style="fill:#212121;" cx="27" cy="21" r="1"/>
	<circle style="fill:#212121;" cx="26.5" cy="33.5" r="0.5"/>
	<circle style="fill:#212121;" cx="26.5" cy="35.5" r="0.5"/>
	<path style="fill:#212121;" d="M25.998,23.526C25.443,23.767,24.724,24,24,24c-0.724,0-1.445-0.234-2-0.475V24h0.001v2l0.872-1.309   C23.218,24.886,23.601,25,24.001,25c0.399,0,0.781-0.114,1.126-0.309L25.999,26v-2h-0.001C25.998,24,25.998,23.526,25.998,23.526z"/>
</g>
</svg>
