<?xml version="1.0" encoding="UTF-8"?>
<svg xmlns="http://www.w3.org/2000/svg" xmlns:xlink="http://www.w3.org/1999/xlink" viewBox="0 0 48 48" version="1.1" width="48px" height="48px">
<g id="surface1">
<path style=" fill:#459E48;" d="M 12 31 C 9.699219 31 8.300781 27.800781 8 26 C 8.699219 24.699219 11.300781 24 12 24 C 17.699219 21.601563 29.800781 21.101563 36 24 C 36.699219 24 39.300781 24.699219 40 26 C 39.699219 27.800781 38.300781 31 36 31 C 33.601563 32.800781 14.699219 34.199219 12 31 Z "/>
<path style=" fill:#388E3C;" d="M 40 8 C 39.398438 8 39 8.398438 39 9 C 39 11.699219 35.699219 14 33 14 C 32.398438 14 32 14.398438 32 15 C 32 15.601563 32.398438 16 33 16 C 36.699219 16 41 12.898438 41 9 C 41 8.398438 40.601563 8 40 8 Z "/>
<path style=" fill:#388E3C;" d="M 8 8 C 8.601563 8 9 8.398438 9 9 C 9 11.699219 12.300781 14 15 14 C 15.601563 14 16 14.398438 16 15 C 16 15.601563 15.601563 16 15 16 C 11.300781 16 7 12.898438 7 9 C 7 8.398438 7.398438 8 8 8 Z "/>
<path style=" fill:#4CAF50;" d="M 12 31 L 12 24 C 12 14.800781 17.300781 8 24 8 C 30.699219 8 36 14.800781 36 24 L 36 31 C 34.800781 36.601563 29 43 24 43 C 19 43 13.199219 36.601563 12 31 Z "/>
<path style=" fill:#8BC34A;" d="M 11 9 C 11 10.65625 9.65625 12 8 12 C 6.34375 12 5 10.65625 5 9 C 5 7.34375 6.34375 6 8 6 C 9.65625 6 11 7.34375 11 9 Z "/>
<path style=" fill:#8BC34A;" d="M 43 9 C 43 10.65625 41.65625 12 40 12 C 38.34375 12 37 10.65625 37 9 C 37 7.34375 38.34375 6 40 6 C 41.65625 6 43 7.34375 43 9 Z "/>
<path style=" fill:#FFF9C4;" d="M 31 26 C 31 23.789063 30.105469 22 29 22 C 27.894531 22 27 23.789063 27 26 C 27 28.210938 27.894531 30 29 30 C 30.105469 30 31 28.210938 31 26 Z "/>
<path style=" fill:#FFF9C4;" d="M 21 26 C 21 23.789063 20.105469 22 19 22 C 17.894531 22 17 23.789063 17 26 C 17 28.210938 17.894531 30 19 30 C 20.105469 30 21 28.210938 21 26 Z "/>
<path style=" fill:#263238;" d="M 30 27 C 30 27.550781 29.550781 28 29 28 C 28.449219 28 28 27.550781 28 27 C 28 26.449219 28.449219 26 29 26 C 29.550781 26 30 26.449219 30 27 Z "/>
<path style=" fill:#263238;" d="M 20 27 C 20 27.550781 19.550781 28 19 28 C 18.449219 28 18 27.550781 18 27 C 18 26.449219 18.449219 26 19 26 C 19.550781 26 20 26.449219 20 27 Z "/>
<path style=" fill:#173027;" d="M 24 33 C 20 33 18.199219 36 18.199219 36 C 18.199219 36 20.800781 36 24 36 C 27.199219 36 29.800781 36 29.800781 36 C 29.800781 36 28 33 24 33 Z "/>
</g>
</svg>
