<?xml version="1.0" encoding="UTF-8"?>
<svg xmlns="http://www.w3.org/2000/svg" xmlns:xlink="http://www.w3.org/1999/xlink" viewBox="0 0 48 48" version="1.1" width="48px" height="48px">
<g id="surface1">
<path style=" fill:#FFB74D;" d="M 38 22 C 38 31.390625 30.390625 39 21 39 C 11.609375 39 4 31.390625 4 22 C 4 12.609375 11.609375 5 21 5 C 30.390625 5 38 12.609375 38 22 Z "/>
<path style=" fill:#37474F;" d="M 15.300781 38 C 14 38.601563 12.5 39 11 39 C 5.5 39 1 34.5 1 29 C 1 26.199219 2.199219 23.699219 4 21.898438 C 4 21.898438 4 22 4 22 C 4 29.398438 8.699219 35.699219 15.300781 38 Z M 46.898438 12.5 C 47 12.199219 47 12 47 12 C 47 11.898438 47 11.800781 47 11.800781 C 46.898438 10.101563 45.398438 8.898438 43.800781 9 C 42.199219 9.101563 41.101563 10.398438 41.101563 12 C 41.101563 13.199219 40.898438 14.398438 40.800781 15.398438 C 38.898438 9.5 30.5 4.699219 19 5 C 19 5.300781 19 5.699219 19 6 C 19 10.199219 22.199219 13.601563 26.199219 14 C 26.101563 14.699219 26 15.300781 26 16 C 26 21.5 30.5 26 36 26 C 37.601563 26 39.601563 25.398438 40.5 21.601563 C 44.601563 20.300781 46.101563 16 46.699219 13.601563 C 46.699219 13.398438 46.800781 13.199219 46.800781 13.101563 C 46.898438 12.898438 46.898438 12.699219 46.898438 12.5 Z "/>
<path style=" " d="M 7.398438 17.300781 C 8.101563 16.800781 9.300781 17.101563 10.199219 18.101563 C 11.101563 19.101563 11.199219 20.300781 10.5 20.800781 C 9.800781 21.300781 8.601563 21 7.699219 20 C 6.800781 19 6.699219 17.800781 7.398438 17.300781 Z M 14.699219 15 C 15.601563 16 16.800781 16.300781 17.5 15.699219 C 18.199219 15.101563 18.101563 13.898438 17.199219 13 C 16.300781 12 15.101563 11.699219 14.398438 12.300781 C 13.699219 12.898438 13.898438 14.101563 14.699219 15 Z "/>
<path style=" fill:#FFD180;" d="M 15.300781 23.199219 C 13.800781 22.800781 11.5 23 10.101563 24.199219 C 8.699219 25.398438 8.5 27.800781 10.199219 28.800781 C 11.800781 29.699219 15 27.898438 15 27.898438 C 17.5 26.101563 17.699219 23.800781 15.300781 23.199219 Z "/>
<path style=" fill:#FB8C00;" d="M 42 34 C 40.398438 39.800781 36 41 33 41 C 32.101563 39.800781 30.5 38.199219 29.101563 36.898438 C 32.398438 35.101563 35 32.199219 36.5 28.800781 C 37.898438 30.699219 40 33.101563 42 34 Z M 17.800781 12.101563 C 17.5 11.601563 17.199219 11.300781 16.699219 10.898438 C 16.300781 10.601563 15.800781 10.300781 15.398438 10.199219 C 15.199219 10.101563 14.898438 10.101563 14.699219 10.101563 C 14.601563 10.101563 14.5 10.101563 14.398438 10.101563 C 14.300781 10.101563 14.300781 10.101563 14.199219 10.101563 C 14 10.101563 13.898438 10.101563 13.898438 10.101563 C 13.800781 10.101563 13.699219 10.101563 13.601563 10.199219 C 13.101563 10.398438 12.800781 11 13 11.5 C 13.199219 12 13.800781 12.300781 14.300781 12.101563 C 14.300781 12.101563 14.398438 12.101563 14.601563 12 C 14.601563 12 14.699219 12 14.800781 11.898438 C 14.800781 11.898438 14.800781 11.898438 14.898438 11.898438 C 15 11.898438 15 11.800781 15.101563 11.898438 C 15.300781 11.898438 15.699219 12 16 12.101563 C 16.300781 12.300781 16.699219 12.5 17 12.800781 C 17.300781 13.101563 17.601563 13.398438 17.800781 13.800781 C 17.898438 14 18 14.199219 18 14.300781 C 18 14.5 18.101563 14.699219 18 14.800781 C 18 15.101563 17.800781 15.398438 17.699219 15.5 C 17.601563 15.699219 17.5 15.699219 17.5 15.699219 C 17.5 15.699219 17.601563 15.601563 17.800781 15.5 C 17.898438 15.398438 18 15.300781 18.101563 15.199219 C 18.199219 15.101563 18.300781 14.898438 18.300781 14.699219 C 18.398438 14.5 18.398438 14.300781 18.398438 14.101563 C 18.398438 13.898438 18.398438 13.601563 18.300781 13.398438 C 18.300781 13 18.101563 12.5 17.800781 12.101563 Z M 11.300781 18.101563 C 11.199219 17.800781 11.101563 17.601563 11 17.300781 C 10.898438 17 10.699219 16.800781 10.5 16.601563 C 10.300781 16.398438 10.101563 16.199219 9.898438 16 C 9.699219 15.800781 9.5 15.601563 9.199219 15.5 C 9 15.398438 8.699219 15.199219 8.5 15.199219 C 8.398438 15.199219 8.300781 15.101563 8.101563 15.101563 C 8 15.101563 7.800781 15.101563 7.699219 15.101563 C 7.601563 15.101563 7.398438 15.101563 7.300781 15.101563 C 7.199219 15.101563 7.199219 15.101563 7.101563 15.101563 C 6.898438 15.101563 6.800781 15.199219 6.800781 15.199219 C 6.699219 15.199219 6.601563 15.199219 6.601563 15.300781 C 6 15.398438 5.800781 16 6 16.5 C 6.199219 17 6.800781 17.300781 7.300781 17 C 7.300781 17 7.398438 17 7.601563 16.898438 C 7.601563 16.898438 7.699219 16.800781 7.800781 16.800781 C 7.800781 16.800781 7.800781 16.800781 7.898438 16.800781 C 7.898438 16.800781 8 16.800781 8 16.800781 C 8.101563 16.800781 8.101563 16.800781 8.199219 16.800781 C 8.300781 16.800781 8.5 16.800781 8.601563 16.898438 C 8.800781 16.898438 8.898438 17 9.101563 17.101563 C 9.300781 17.199219 9.5 17.300781 9.601563 17.398438 C 9.800781 17.5 9.898438 17.699219 10.101563 17.800781 C 10.300781 18 10.398438 18.101563 10.5 18.300781 C 10.601563 18.5 10.699219 18.699219 10.800781 18.898438 C 10.898438 19.101563 10.898438 19.300781 10.898438 19.5 C 10.898438 19.699219 10.898438 19.898438 10.800781 20 C 10.800781 20.199219 10.699219 20.300781 10.601563 20.398438 C 10.5 20.5 10.398438 20.601563 10.300781 20.699219 C 10.101563 20.898438 10 21 10 21 C 10 21 10.101563 21 10.300781 20.898438 C 10.398438 20.898438 10.5 20.800781 10.699219 20.699219 C 10.800781 20.601563 11 20.5 11.101563 20.300781 C 11.199219 20.101563 11.300781 19.898438 11.398438 19.699219 C 11.398438 19.5 11.5 19.199219 11.398438 18.898438 C 11.398438 18.601563 11.300781 18.398438 11.300781 18.101563 Z M 25.101563 19 C 25.699219 19 26.101563 18.5 26 17.898438 C 26 17.300781 25.5 16.898438 24.898438 17 C 24.800781 17 23.898438 17.101563 22.800781 17.699219 C 21 18.699219 20.101563 20.5 20.101563 20.601563 C 19.898438 21.101563 20.101563 21.699219 20.601563 21.898438 C 20.699219 22 20.898438 22 21 22 C 21.398438 22 21.699219 21.800781 21.898438 21.398438 C 21.898438 21.398438 22.199219 20.898438 22.601563 20.300781 C 23.101563 21.300781 23.898438 23 23.898438 25 C 23.898438 28.699219 21.199219 31.199219 21.199219 31.300781 C 20.800781 31.699219 20.800781 32.300781 21.101563 32.699219 C 21.300781 32.898438 21.601563 33 21.800781 33 C 22 33 22.300781 32.898438 22.5 32.699219 C 22.601563 32.601563 25.800781 29.601563 25.800781 25 C 25.800781 22.5 24.800781 20.300781 24.101563 19.199219 C 24.800781 19 25.101563 19 25.101563 19 Z "/>
<path style=" fill:#FFEA00;" d="M 35 26.5 C 35 25.101563 36.101563 24 37.5 24 C 38.898438 24 40 25.101563 40 26.5 C 40 27.898438 38.898438 29 37.5 29 C 36.101563 29 35 27.898438 35 26.5 Z M 13.5 37.199219 C 12.601563 37.601563 12 38.5 12 39.5 C 12 40.898438 13.101563 42 14.5 42 C 15.898438 42 17 40.898438 17 39.5 C 17 39.101563 16.898438 38.800781 16.800781 38.398438 C 15.601563 38.101563 14.5 37.699219 13.5 37.199219 Z "/>
</g>
</svg>
