<?xml version="1.0" encoding="utf-8"?>
<!-- Generator: Adobe Illustrator 21.0.2, SVG Export Plug-In . SVG Version: 6.00 Build 0)  -->
<svg xmlns="http://www.w3.org/2000/svg" xmlns:xlink="http://www.w3.org/1999/xlink" version="1.1" id="Layer_1" x="0px" y="0px" viewBox="0 0 48 48" style="enable-background:new 0 0 48 48;" xml:space="preserve" width="416px" height="416px">
<g id="Layer_1_1_">
	<path style="fill:#FFB74D;" d="M24,7C12.3,7,13,17,13,17c0,3.7,0,13,0,13v6.6c0,0.9,0.4,1.7,1,2.3l6.1,5.4c0.5,0.5,1.2,0.7,2,0.7   H24h1.9c0.7,0,1.4-0.3,2-0.7l6.1-5.4c0.7-0.6,1-1.4,1-2.3V29c0,0,0-8.3,0-12C35,17,35.7,7,24,7z"/>
	<path style="fill:#78909C;" d="M24,7c-4.7,0-8,0-11.3,0.6C8.2,11,6,16.6,6,22.5c0,5.6,1.7,12.3,6,15.5l6,4.4V39   c-3.2-2.5-5-6.4-5-10.4V26c0,0,0-6,3-6c2,0,7,7,7,7h2c0,0,5-7,7-7c3,0,3,6,3,6v2.6c0,4-1.8,7.9-5,10.4v3.4l6-4.4   c4.3-3.2,6-9.9,6-15.5c0-5.9-2.2-11.5-6.7-14.9C32,7,28.7,7,24,7z"/>
	<g>
		<path style="fill:#90A4AE;" d="M35.3,7.6C31,12,26,21,26,21h-2c0,0,3.2-16.8,4.6-16.5C31.2,5.1,33.5,6.1,35.3,7.6z"/>
		<path style="fill:#90A4AE;" d="M24,21h-2c0,0-5-9-9.4-13.4c1.9-1.5,4.1-2.5,6.7-3.1C20.8,4.2,24,21,24,21z"/>
	</g>
	<path style="fill:#FB8C00;" d="M28.6,37.9c0,0-1.9-0.9-4.6-0.9c-2.7,0-4.5,0.9-4.6,0.9l-0.9-1.8c0.1,0,2.2-1.1,5.4-1.1   s5.4,1.1,5.4,1.1L28.6,37.9z"/>
	<g>
		<path style="fill:#FAFAFA;" d="M26,27c0,0,1.3,0,3,0s3-0.6,3-0.7c0-0.6-0.3-1.3-2-1.3S26,27,26,27z"/>
		<path style="fill:#FAFAFA;" d="M22,27c0,0-1.3,0-3,0s-3-0.6-3-0.7c0-0.6,0.3-1.3,2-1.3S22,27,22,27z"/>
	</g>
	<g>
		<path style="fill:#424242;" d="M25,27c0,0,0.5-1.3,2-2c2-1,3-2,4-2c2,0,3,2,3,2s-1.6-0.8-2.5-0.8C30,25,27,27,26,27S25,27,25,27z"/>
		<path style="fill:#424242;" d="M23,27c0,0-0.5-1.3-2-2c-2-1-3-2-4-2c-2,0-3,2-3,2s1.6-0.8,2.5-0.8C18,25,21,27,22,27S23,27,23,27z    "/>
	</g>
	<path style="fill:#B0BEC5;" d="M28.6,4.5L25,27h-2L19.4,4.5C20.8,4.2,22.4,4,24,4S27.2,4.2,28.6,4.5z"/>
	<path style="fill:#546E7A;" d="M27.4,12.3L27.1,14h-6.2l-0.3-1.7c-0.2-1.2,0.8-2.3,2-2.3h2.7C26.6,10,27.5,11.1,27.4,12.3z"/>
	<path style="fill:#CFD8DC;" d="M27.1,14.2L25,27h-2l-2.1-12.8c-0.1-0.6,0.4-1.2,1-1.2h4.1C26.7,13,27.2,13.6,27.1,14.2z"/>
	<g>
		<path style="fill:#78909C;" d="M8.7,25C7.4,24.8,1,22.7,1,4h4c0,15.4,4.4,17,4.5,17.1c-0.1,0-0.1,0-0.1,0L8.7,25z"/>
		<path style="fill:#78909C;" d="M39.3,25L38.7,21c0,0,0,0-0.1,0c0,0,4.5-1.6,4.5-17.1h4C47,22.7,40.6,24.8,39.3,25z"/>
	</g>
	<g>
		<path style="fill:#546E7A;" d="M14,17c-2,0-6,1-6,7c0,5.6,6.2,10,6.2,10c-0.8-1.7-1.2-3.5-1.2-5.4V26c0,0,0-6,3-6c2,0,7,7,7,7    S20,17,14,17z"/>
		<path style="fill:#546E7A;" d="M34,17c2,0,6,1,6,7c0,5.6-6.2,10-6.2,10c0.8-1.7,1.2-3.5,1.2-5.4V26c0,0,0-6-3-6c-2,0-7,7-7,7    S28,17,34,17z"/>
	</g>
	<circle style="fill:#78909C;" cx="24" cy="28" r="4"/>
	<g>
		<path style="fill:#78909C;" d="M39,32c-9.3,0-13.5-4.1-13.7-4.3l1.4-1.4c0,0,3.9,3.7,12.3,3.7V32z"/>
		<path style="fill:#78909C;" d="M9,32v-2c8.4,0,12.3-3.7,12.3-3.7l1.4,1.4C22.5,27.9,18.3,32,9,32z"/>
	</g>
	<circle style="fill:#E57373;" cx="24" cy="28" r="2"/>
</g>
<g id="Layer_2">
</g>
</svg>
