<?xml version="1.0" encoding="iso-8859-1"?>
<!-- Generator: Adobe Illustrator 22.1.0, SVG Export Plug-In . SVG Version: 6.00 Build 0)  -->
<svg xmlns="http://www.w3.org/2000/svg" xmlns:xlink="http://www.w3.org/1999/xlink" version="1.1" x="0px" y="0px" viewBox="0 0 48 48" style="enable-background:new 0 0 48 48;" xml:space="preserve" width="48px" height="48px">
<g id="Layer_1">
	<path style="fill:#424242;" d="M26,5c15,0,15,13,15,13l2,27h-9H14H5l2-27C7,18,8,3,22,3C25,3,26,5,26,5z"/>
	<rect x="13" y="35" style="fill:#212121;" width="22" height="10"/>
	<polygon style="fill:#FF9800;" points="24,37 17,37 17,45 31,45 31,37  "/>
	<path style="fill:#FFB74D;" d="M24,10l-10,5c0,3.503,0.008,20.151,0.008,20.151c0,0.817,0.339,1.594,0.931,2.132l7.099,4.994   c1.144,0.966,2.782,0.966,3.925,0l7.099-4.994c0.591-0.538,0.931-1.315,0.931-2.132c0,0,0.008-16.648,0.008-20.151L24,10z"/>
	<path style="fill:#B71C1C;" d="M25,34c-0.75,0-1,1-1,1s-0.042-1-1-1s-3,1-3,1s2.2,2,4,2s4-2,4-2S25.75,34,25,34z"/>
	<g>
		<path style="fill:#EFEBE9;" d="M27,26c0,0,0.634-3,3.171-3C32.396,23,33,24.333,33,24.333S32.073,26,30.463,26    C28.854,26,28.979,26,27,26z"/>
		<path style="fill:#EFEBE9;" d="M21,26c0,0-0.634-3-3.171-3C15.604,23,15,24.333,15,24.333S15.927,26,17.537,26S19.021,26,21,26z"/>
	</g>
	<g>
		<path style="fill:#43A047;" d="M31,24.5c0,0.83-0.67,1.5-1.5,1.5S28,25.33,28,24.5c0-0.24,0.05-0.46,0.16-0.66    c0.4-0.4,0.92-0.72,1.61-0.81h0.03C30.49,23.17,31,23.77,31,24.5z"/>
		<path style="fill:#43A047;" d="M17,24.5c0,0.83,0.67,1.5,1.5,1.5s1.5-0.67,1.5-1.5c0-0.24-0.05-0.46-0.16-0.66    c-0.4-0.4-0.92-0.72-1.61-0.81H18.2C17.51,23.17,17,23.77,17,24.5z"/>
	</g>
	<g>
		<circle style="fill:#263238;" cx="29.5" cy="24.5" r="0.5"/>
		<circle style="fill:#263238;" cx="18.5" cy="24.5" r="0.5"/>
	</g>
	<g>
		<path style="fill:#424242;" d="M27,26c0,0,0.634-3,3.171-3C32.396,23,33,24.333,33,24.333S33,24,30,24C28.39,24,27,26,27,26z"/>
		<path style="fill:#424242;" d="M21,26c0,0-0.634-3-3.171-3C15.604,23,15,24.333,15,24.333S15,24,18,24C19.61,24,21,26,21,26z"/>
	</g>
	<g>
		<g>
			<path style="fill:#424242;" d="M26,24c0,0,1.013-0.536,1.364-0.686c0.657-0.282,1.803-0.674,2.428-0.814     c0.379-0.085,0.949-0.187,1.541-0.187C32.31,22.312,34,23.03,34,23.03V22c0,0-1-1-2-1c-3,0-4.413,1.147-5.052,1.785     C26.302,23.418,26,24,26,24z"/>
		</g>
		<g>
			<path style="fill:#424242;" d="M22,24c0,0-1.013-0.536-1.364-0.686c-0.657-0.282-1.803-0.674-2.428-0.814     c-0.379-0.085-0.949-0.187-1.541-0.187C15.69,22.312,14,23.03,14,23.03V22c0,0,1-1,2-1c3,0,4.413,1.147,5.052,1.785     C21.698,23.418,22,24,22,24z"/>
		</g>
	</g>
	<path style="fill:#388E3C;" d="M35,18c0,0-5,1-11,1s-11-1-11-1l4-7h13L35,18z"/>
	<g>
		<path style="fill:#EEEEEE;" d="M38,45h-4c0,0,0-12.943,0-21c0-8-3.998-11-7-11c-2,0-3,1-3,1s-1-2-4-2s-6,3-6,12c0,8.016,0,21,0,21    h-4l1-24c0,0,0-13,11-13c2.14,0,3,2,3,2c12,0,12,11,12,11L38,45z"/>
	</g>
</g>
<g id="Layer_2">
</g>
</svg>
