<?xml version="1.0" encoding="utf-8"?>
<!-- Generator: Adobe Illustrator 21.0.2, SVG Export Plug-In . SVG Version: 6.00 Build 0)  -->
<svg xmlns="http://www.w3.org/2000/svg" xmlns:xlink="http://www.w3.org/1999/xlink" version="1.1" id="Layer_1" x="0px" y="0px" viewBox="0 0 40 40" style="enable-background:new 0 0 40 40;" xml:space="preserve" width="80px" height="80px">
<g>
	<path style="fill:#F78F8F;" d="M20,38.5c-6.9,0-12.5-12.3-12.5-22.6C7.5,6.8,12.1,1.5,20,1.5s12.5,5.3,12.5,14.4   C32.5,26.2,26.9,38.5,20,38.5z"/>
	<path style="fill:#C74343;" d="M20,2c7.6,0,12,5.1,12,13.9C32,25.9,26.5,38,20,38S8,25.9,8,15.9C8,7.1,12.4,2,20,2 M20,1   C12.8,1,7,5.4,7,15.9S12.8,39,20,39s13-12.6,13-23.1S27.2,1,20,1L20,1z"/>
</g>
<path style="fill:#C74343;" d="M19.5,1v37.9c0.2,0,0.3,0.1,0.5,0.1s0.3,0,0.5-0.1V1c-0.2,0-0.3,0-0.5,0S19.7,1,19.5,1z"/>
<path style="fill:#C74343;" d="M29.8,16.5c-0.2-0.1-4.6-1.5-4.9-5.5c-3.8-0.2-5.3-2.6-5.4-2.7l0.9-0.5c0.1,0.1,1.5,2.3,5,2.3h0.5  v0.5c0,3.6,4.2,5,4.2,5L29.8,16.5z"/>
<path style="fill:#C74343;" d="M10.2,16.5l-0.3-1c0,0,4.2-1.4,4.2-5V10h0.5c3.6,0,5-2.2,5-2.3l0.9,0.5c-0.1,0.1-1.6,2.5-5.4,2.7  C14.7,14.9,10.3,16.4,10.2,16.5z"/>
<path style="fill:#C74343;" d="M20.5,33.7l-0.9-0.3c0,0,1.3-3.4,5.5-3.4v1C21.5,31,20.5,33.7,20.5,33.7z"/>
<path style="fill:#C74343;" d="M19.5,33.7c0-0.1-1-2.7-4.5-2.7v-1c4.2,0,5.5,3.4,5.5,3.4L19.5,33.7z"/>
<path style="fill:#66798F;" d="M30,13.9c-0.4,3.2-6.1,5.5-8.3,6.2l-1.6,0.6l0.4,0.8c0.1,0.2,2,4.4,6,6.4l0.6,0.3l0.5-0.5  c2.8-2.8,4.1-6.8,4.3-12.7c0-0.3,0-4.4-2-7.7C30.5,10.9,30,13.9,30,13.9L30,13.9z"/>
<path style="fill:#FFFFFF;" d="M21.6,21.2c0,0,8.8-2.6,9.4-7.2c0,6.1-1.3,10.3-4,13C23.4,25.2,21.6,21.2,21.6,21.2z"/>
<path style="fill:#66798F;" d="M10,13.9c0,0-0.5-2.9,0-6.6c-2,3.3-2,7.4-2,7.7c0.1,5.9,1.5,9.9,4.3,12.7l0.5,0.5l0.6-0.3  c4-2,5.9-6.2,6-6.4l0.4-0.8L18.3,20C16.1,19.4,10.4,17,10,13.9L10,13.9z"/>
<path style="fill:#FFFFFF;" d="M18.4,21.2c0,0-8.8-2.6-9.4-7.2c0,6.1,1.3,10.3,4,13C16.6,25.2,18.4,21.2,18.4,21.2z"/>
<rect x="4.4" y="19" transform="matrix(0.4824 -0.8759 0.8759 0.4824 -6.2115 28.488)" style="fill:#C74343;" width="33.1" height="1"/>
<rect x="18.5" y="2.9" transform="matrix(0.8756 -0.4831 0.4831 0.8756 -7.0561 11.6052)" style="fill:#C74343;" width="1" height="33.1"/>
</svg>
