<?xml version="1.0" encoding="UTF-8"?>
<svg xmlns="http://www.w3.org/2000/svg" xmlns:xlink="http://www.w3.org/1999/xlink" viewBox="0 0 48 48" version="1.1" width="416px" height="416px">
<g id="surface1">
<path style=" fill:#FFE082;" d="M 28 46 C 32.601563 46 39.800781 45.5 43 42.898438 C 38.199219 41.101563 38 24.800781 38 24.800781 L 25 23.101563 L 25 22.800781 L 24 23 L 23 22.898438 L 23 23.199219 L 10 24.898438 C 10 24.898438 9.699219 41.199219 5 43 C 8.199219 45.601563 15.398438 46 20 46.101563 L 20.398438 46.101563 C 20.5 46.101563 20.601563 46.101563 20.699219 46.101563 L 27.199219 46.101563 C 27.300781 46.101563 27.398438 46.101563 27.5 46.101563 Z "/>
<path style=" fill:#607D8B;" d="M 5 15.898438 C 5 15.898438 5.601563 16.101563 6.300781 16.398438 C 7 16.699219 7.898438 17.199219 8.699219 17.699219 C 9.101563 18 9.5 18.199219 9.898438 18.5 C 10.300781 18.699219 10.601563 19 10.898438 19.199219 C 11.199219 19.398438 11.5 19.601563 11.699219 19.699219 C 11.898438 19.800781 12 19.898438 12 19.898438 C 12 19.898438 11.898438 20 11.601563 20.101563 C 11.5 20.101563 11.300781 20.199219 11.199219 20.199219 C 11 20.199219 10.800781 20.300781 10.601563 20.300781 C 10.398438 20.300781 10.101563 20.300781 9.898438 20.300781 C 9.699219 20.300781 9.398438 20.199219 9.101563 20.101563 C 8.601563 19.898438 8.101563 19.699219 7.601563 19.398438 C 6.699219 18.800781 5.898438 18 5.5 17.199219 C 5.101563 16.5 5 15.898438 5 15.898438 Z M 41.699219 16.398438 C 41 16.699219 40.101563 17.199219 39.300781 17.699219 C 38.898438 18 38.5 18.199219 38.101563 18.5 C 37.699219 18.699219 37.398438 19 37.101563 19.199219 C 36.800781 19.398438 36.5 19.601563 36.300781 19.699219 C 36.101563 19.800781 36 19.898438 36 19.898438 C 36 19.898438 36.101563 20 36.398438 20.101563 C 36.5 20.101563 36.699219 20.199219 36.800781 20.199219 C 37 20.199219 37.199219 20.300781 37.398438 20.300781 C 37.601563 20.300781 37.898438 20.300781 38.101563 20.300781 C 38.300781 20.300781 38.601563 20.199219 38.898438 20.101563 C 39.398438 19.898438 39.898438 19.699219 40.398438 19.398438 C 41.300781 18.800781 42.101563 18 42.5 17.199219 C 42.898438 16.5 43 15.898438 43 15.898438 C 43 15.898438 42.398438 16.101563 41.699219 16.398438 Z "/>
<path style=" fill:#90A4AE;" d="M 3 8.898438 C 3 8.898438 3.101563 8.898438 3.199219 8.898438 C 3.300781 8.898438 3.5 8.898438 3.800781 9.101563 C 4.199219 9.300781 4.699219 9.898438 5.101563 10.5 C 5.5 11.101563 6 11.898438 6.398438 12.699219 C 6.800781 13.5 7.300781 14.398438 7.699219 15.199219 C 7.898438 15.601563 8.199219 16 8.398438 16.398438 C 8.699219 16.800781 8.898438 17.101563 9.199219 17.398438 C 9.5 17.699219 9.699219 18 10 18.300781 C 10.300781 18.5 10.601563 18.800781 10.898438 19 C 11.199219 19.199219 11.5 19.300781 11.699219 19.5 C 12 19.601563 12.199219 19.699219 12.398438 19.800781 C 12.800781 19.898438 13.101563 20 13.101563 20 C 13.101563 20 12.898438 20.101563 12.398438 20.199219 C 12.199219 20.199219 11.898438 20.300781 11.601563 20.199219 C 11.300781 20.199219 10.898438 20.101563 10.5 20 C 10.300781 19.898438 10.101563 19.898438 9.898438 19.800781 C 9.699219 19.699219 9.5 19.601563 9.300781 19.5 C 8.898438 19.300781 8.398438 19 8.101563 18.601563 C 7.300781 17.898438 6.699219 17 6.101563 16.101563 C 5.601563 15.199219 5.199219 14.199219 4.898438 13.300781 C 4.601563 12.398438 4.398438 11.601563 4.199219 10.898438 C 4 10.199219 3.800781 9.601563 3.601563 9.300781 C 3.398438 9.199219 3.300781 9.101563 3.199219 9 C 3.101563 8.898438 3 8.898438 3 8.898438 Z M 44.800781 8.898438 C 44.699219 8.898438 44.5 8.898438 44.199219 9.101563 C 43.800781 9.300781 43.300781 9.898438 42.898438 10.5 C 42.5 11.101563 42 11.898438 41.601563 12.699219 C 41.199219 13.5 40.699219 14.398438 40.300781 15.199219 C 40.101563 15.601563 39.800781 16 39.601563 16.398438 C 39.300781 16.800781 39.101563 17.101563 38.800781 17.398438 C 38.5 17.699219 38.300781 18 38 18.300781 C 37.699219 18.5 37.398438 18.800781 37.101563 19 C 36.800781 19.199219 36.5 19.300781 36.300781 19.5 C 36 19.601563 35.800781 19.699219 35.601563 19.800781 C 35.199219 19.898438 34.898438 20 34.898438 20 C 34.898438 20 35.101563 20.101563 35.601563 20.199219 C 35.800781 20.199219 36.101563 20.300781 36.398438 20.199219 C 36.699219 20.199219 37.101563 20.101563 37.5 20 C 37.699219 19.898438 37.898438 19.898438 38.101563 19.800781 C 38.300781 19.699219 38.5 19.601563 38.699219 19.5 C 39.101563 19.300781 39.601563 19 39.898438 18.601563 C 40.699219 17.898438 41.300781 17 41.898438 16.101563 C 42.398438 15.199219 42.800781 14.199219 43.101563 13.300781 C 43.398438 12.398438 43.601563 11.601563 43.800781 10.898438 C 44 10.199219 44.199219 9.601563 44.398438 9.300781 C 44.5 9.101563 44.601563 9 44.699219 9 C 44.898438 8.898438 45 8.898438 45 8.898438 C 45 8.898438 44.898438 8.898438 44.800781 8.898438 Z "/>
<path style=" fill:#B0BEC5;" d="M 4 5.101563 C 4 5.101563 4.101563 5.101563 4.199219 5 C 4.300781 5 4.601563 5 4.898438 5.101563 C 5.199219 5.199219 5.5 5.5 5.699219 5.699219 C 6 6 6.300781 6.300781 6.5 6.699219 C 7.601563 8.300781 8.398438 10.5 9.101563 12.601563 C 9.800781 14.699219 10.398438 16.800781 11.101563 18.101563 C 11.199219 18.300781 11.300781 18.398438 11.398438 18.601563 C 11.5 18.800781 11.601563 18.898438 11.699219 19 C 11.800781 19.101563 11.898438 19.199219 12 19.300781 C 12.101563 19.398438 12.199219 19.5 12.300781 19.601563 C 12.699219 20 13 20 13 20.101563 C 13 20.101563 12.699219 20.300781 12.101563 20.300781 C 11.800781 20.300781 11.398438 20.300781 11.101563 20.101563 C 10.699219 20 10.300781 19.699219 9.898438 19.398438 C 9.101563 18.800781 8.398438 17.898438 7.800781 16.898438 C 7.199219 15.898438 6.699219 14.800781 6.398438 13.699219 C 5.601563 11.398438 5.199219 9.101563 5 7.5 C 4.898438 7.101563 4.800781 6.699219 4.800781 6.398438 C 4.699219 6.101563 4.601563 5.800781 4.5 5.601563 C 4.398438 5.398438 4.300781 5.300781 4.199219 5.199219 C 4.101563 5.101563 4 5.101563 4 5.101563 Z M 43.800781 5 C 43.699219 5 43.398438 5 43.101563 5.101563 C 42.800781 5.199219 42.5 5.5 42.300781 5.699219 C 42 6 41.699219 6.300781 41.5 6.699219 C 40.398438 8.300781 39.601563 10.5 38.898438 12.601563 C 38.199219 14.699219 37.601563 16.800781 36.898438 18.101563 C 36.800781 18.300781 36.699219 18.398438 36.601563 18.601563 C 36.5 18.800781 36.398438 18.898438 36.300781 19 C 36.199219 19.101563 36.101563 19.199219 36 19.300781 C 35.898438 19.398438 35.800781 19.5 35.699219 19.601563 C 35.300781 20 35 20 35 20.101563 C 35 20.101563 35.300781 20.300781 35.898438 20.300781 C 36.199219 20.300781 36.601563 20.300781 36.898438 20.101563 C 37.300781 20 37.699219 19.699219 38.101563 19.398438 C 38.898438 18.800781 39.601563 17.898438 40.199219 16.898438 C 40.800781 15.898438 41.300781 14.800781 41.601563 13.699219 C 42.300781 11.5 42.699219 9.199219 42.898438 7.5 C 43 7.101563 43 6.699219 43.101563 6.398438 C 43.199219 6.101563 43.300781 5.800781 43.398438 5.601563 C 43.5 5.398438 43.601563 5.300781 43.699219 5.199219 C 43.898438 5.101563 44 5.101563 44 5.101563 C 44 5.101563 43.898438 5 43.800781 5 Z "/>
<path style=" fill:#CFD8DC;" d="M 13.898438 19.101563 C 13.898438 19.101563 13.800781 19.101563 13.699219 19.199219 C 13.5 19.199219 13.300781 19.300781 13 19.300781 C 12.800781 19.300781 12.699219 19.300781 12.5 19.300781 C 12.300781 19.300781 12.101563 19.199219 11.898438 19.199219 C 11.5 19.101563 11 18.898438 10.5 18.601563 C 10 18.300781 9.5 17.800781 9.199219 17.300781 C 8.800781 16.800781 8.5 16.199219 8.199219 15.601563 C 7.398438 14.300781 7 13 6.800781 11.601563 C 6.300781 9 6.398438 6.398438 6.199219 4.601563 C 6.199219 4.101563 6.101563 3.699219 6 3.398438 C 5.898438 3.101563 5.800781 2.800781 5.699219 2.601563 C 5.5 2.398438 5.398438 2.300781 5.199219 2.199219 C 5.101563 2.101563 5 2.101563 5 2.101563 C 5 2.101563 5.101563 2.101563 5.199219 2 C 5.398438 2 5.699219 2 6 2.101563 C 6.300781 2.199219 6.699219 2.5 7 2.800781 C 7.300781 3.101563 7.601563 3.601563 7.800781 4.101563 C 8.800781 6 9.199219 8.699219 9.699219 11.199219 C 9.800781 11.800781 9.898438 12.398438 10 13 C 10.101563 13.601563 10.199219 14.199219 10.398438 14.699219 C 10.5 15.199219 10.699219 15.699219 10.898438 16.199219 C 11.101563 16.699219 11.300781 17 11.5 17.398438 C 11.699219 17.699219 12 18 12.199219 18.300781 C 12.300781 18.398438 12.5 18.5 12.601563 18.601563 C 12.699219 18.699219 12.898438 18.800781 13 18.800781 C 13.199219 18.898438 13.5 19 13.601563 19.101563 C 13.800781 19.101563 13.898438 19.101563 13.898438 19.101563 Z M 34.398438 19.199219 C 34.601563 19.199219 34.800781 19.300781 35.101563 19.300781 C 35.300781 19.300781 35.398438 19.300781 35.601563 19.300781 C 35.800781 19.300781 36 19.199219 36.199219 19.199219 C 36.601563 19.101563 37.101563 18.898438 37.601563 18.601563 C 38.101563 18.300781 38.601563 17.800781 38.898438 17.300781 C 39.300781 16.800781 39.601563 16.199219 39.898438 15.601563 C 40.5 14.398438 40.800781 13 41.101563 11.699219 C 41.601563 9 41.5 6.398438 41.699219 4.601563 C 41.699219 4.101563 41.800781 3.699219 41.898438 3.398438 C 42 3.101563 42.101563 2.800781 42.300781 2.601563 C 42.5 2.398438 42.601563 2.300781 42.800781 2.199219 C 42.898438 2.101563 43 2.101563 43 2.101563 C 43 2.101563 42.898438 2.101563 42.800781 2 C 42.601563 2 42.300781 2 42 2.101563 C 41.699219 2.199219 41.300781 2.5 41 2.800781 C 40.699219 3.101563 40.398438 3.601563 40.199219 4.101563 C 39.199219 6 38.800781 8.699219 38.300781 11.199219 C 38.199219 11.800781 38.101563 12.398438 38 13 C 37.898438 13.601563 37.800781 14.199219 37.601563 14.699219 C 37.5 15.199219 37.300781 15.699219 37.101563 16.199219 C 36.898438 16.699219 36.699219 17 36.5 17.398438 C 36.300781 17.699219 36 18 35.800781 18.300781 C 35.699219 18.398438 35.5 18.5 35.398438 18.601563 C 35.300781 18.699219 35.101563 18.800781 35 18.800781 C 34.800781 18.898438 34.5 19 34.398438 19.101563 C 34.300781 19.199219 34.199219 19.199219 34.199219 19.199219 C 34.199219 19.199219 34.199219 19.101563 34.398438 19.199219 Z "/>
<path style=" fill:#FFA726;" d="M 36 27.300781 C 36 36.398438 29.601563 45.898438 24 45.898438 C 18.398438 45.898438 12 36.398438 12 27.300781 C 12 18.199219 17.398438 10.800781 24 10.800781 C 30.601563 10.800781 36 18.199219 36 27.300781 Z "/>
<path style=" fill:#9FA8DA;" d="M 24 6.800781 C 19.800781 13 10 9.800781 10 24.800781 L 38 24.800781 C 38 9.800781 28.199219 13 24 6.800781 Z "/>
<path style=" fill:#7986CB;" d="M 37.699219 20.800781 L 10.300781 20.800781 C 10.101563 22 10 23.300781 10 24.800781 L 20 24.800781 C 20 27 21.800781 28.800781 24 28.800781 C 26.199219 28.800781 28 27 28 24.800781 L 38 24.800781 C 38 23.300781 37.898438 22 37.699219 20.800781 Z "/>
<path style=" fill:#FFECB3;" d="M 16.699219 41.199219 C 16.101563 42.601563 15.199219 44.601563 14.5 45.699219 C 13.699219 45.601563 13 45.5 12.199219 45.398438 C 13.398438 44.101563 14.601563 41.199219 15.398438 39.101563 C 15.800781 39.800781 16.199219 40.5 16.699219 41.199219 Z M 31.398438 41.101563 C 32 42.601563 32.800781 44.699219 33.5 45.800781 C 34.300781 45.699219 35 45.601563 35.800781 45.5 C 34.699219 44.199219 33.5 41.199219 32.699219 39.101563 C 32.300781 39.699219 31.898438 40.398438 31.398438 41.101563 Z M 12 24.800781 C 12 28 11.601563 40.199219 7.300781 44.101563 C 7.898438 44.398438 8.601563 44.601563 9.398438 44.800781 C 13.601563 39.898438 14 28 14 24.800781 Z M 34 24.800781 C 34 28 34.398438 40 38.601563 44.800781 C 39.300781 44.601563 40 44.398438 40.699219 44.101563 C 36.398438 40.300781 36 28 36 24.800781 Z "/>
<path style=" fill:#784719;" d="M 29.5 30.800781 C 27.101563 30.800781 27 28.800781 27 28.800781 L 33 26.898438 C 33 26.898438 31.898438 30.800781 29.5 30.800781 Z M 18.5 30.800781 C 20.898438 30.800781 21 28.800781 21 28.800781 L 15 26.898438 C 15 26.898438 16.101563 30.800781 18.5 30.800781 Z "/>
</g>
</svg>
